<svg xmlns="http://www.w3.org/2000/svg" xmlns:xlink="http://www.w3.org/1999/xlink" width="1086" zoomAndPan="magnify" viewBox="0 0 814.5 291.749983" height="389" preserveAspectRatio="xMidYMid meet" version="1.0"><defs><g/><clipPath id="bdd5320282"><path d="M 460.863281 64.050781 L 771.957031 64.050781 L 771.957031 220.207031 L 460.863281 220.207031 Z M 460.863281 64.050781 " clip-rule="nonzero"/></clipPath><clipPath id="4de4c416be"><path d="M 483.34375 64.050781 L 749.011719 64.050781 C 761.425781 64.050781 771.492188 74.117188 771.492188 86.53125 L 771.492188 197.726562 C 771.492188 210.144531 761.425781 220.207031 749.011719 220.207031 L 483.34375 220.207031 C 470.929688 220.207031 460.863281 210.144531 460.863281 197.726562 L 460.863281 86.53125 C 460.863281 74.117188 470.929688 64.050781 483.34375 64.050781 Z M 483.34375 64.050781 " clip-rule="nonzero"/></clipPath></defs><g clip-path="url(#bdd5320282)"><g clip-path="url(#4de4c416be)"><path fill="#0cc0df" d="M 460.863281 64.050781 L 771.347656 64.050781 L 771.347656 220.207031 L 460.863281 220.207031 Z M 460.863281 64.050781 " fill-opacity="1" fill-rule="nonzero"/></g></g><g fill="#ffffff" fill-opacity="1"><g transform="translate(470.297031, 200.904956)"><g><path d="M 45.75 -53.625 C 42.113281 -53.625 39.25 -52.628906 37.15625 -50.640625 C 35.070312 -48.660156 33.570312 -46.253906 32.65625 -43.421875 C 31.75 -40.585938 31.296875 -37.832031 31.296875 -35.15625 C 31.296875 -32.476562 31.722656 -29.691406 32.578125 -26.796875 C 33.441406 -23.910156 34.914062 -21.503906 37 -19.578125 C 39.09375 -17.648438 42.007812 -16.6875 45.75 -16.6875 C 49.5 -16.6875 52.65625 -17.488281 55.21875 -19.09375 C 57.789062 -20.707031 59.289062 -23.117188 59.71875 -26.328125 L 83.15625 -26.328125 C 82.40625 -21.085938 80.367188 -16.351562 77.046875 -12.125 C 73.734375 -7.894531 69.347656 -4.546875 63.890625 -2.078125 C 58.429688 0.378906 52.117188 1.609375 44.953125 1.609375 C 36.816406 1.609375 29.804688 -0.078125 23.921875 -3.453125 C 18.035156 -6.828125 13.515625 -11.296875 10.359375 -16.859375 C 7.203125 -22.421875 5.625 -28.570312 5.625 -35.3125 C 5.625 -42.0625 7.253906 -48.242188 10.515625 -53.859375 C 13.773438 -59.472656 18.375 -63.96875 24.3125 -67.34375 C 30.257812 -70.71875 37.140625 -72.40625 44.953125 -72.40625 C 52.648438 -72.40625 59.304688 -71.039062 64.921875 -68.3125 C 70.546875 -65.582031 74.988281 -61.941406 78.25 -57.390625 C 81.519531 -52.835938 83.316406 -47.832031 83.640625 -42.375 L 59.71875 -42.375 C 59.613281 -45.800781 58.300781 -48.53125 55.78125 -50.5625 C 53.269531 -52.601562 49.925781 -53.625 45.75 -53.625 Z M 45.75 -53.625 "/></g></g></g><g fill="#ffffff" fill-opacity="1"><g transform="translate(553.769964, 200.904956)"><g><path d="M 82.03125 -40.140625 L 82.03125 0 L 57.953125 0 L 57.953125 -40.140625 C 57.953125 -44.304688 57.09375 -47.484375 55.375 -49.671875 C 53.664062 -51.867188 50.941406 -52.96875 47.203125 -52.96875 C 43.453125 -52.96875 40.265625 -51.226562 37.640625 -47.75 C 35.023438 -44.28125 33.71875 -40.132812 33.71875 -35.3125 L 33.71875 0 L 9.625 0 L 9.625 -120.40625 L 33.71875 -120.40625 L 33.71875 -62.125 C 36.175781 -65.226562 39.25 -67.71875 42.9375 -69.59375 C 46.632812 -71.46875 50.785156 -72.40625 55.390625 -72.40625 C 64.910156 -72.40625 71.726562 -69.429688 75.84375 -63.484375 C 79.96875 -57.546875 82.03125 -49.765625 82.03125 -40.140625 Z M 82.03125 -40.140625 "/></g></g></g><g fill="#ffffff" fill-opacity="1"><g transform="translate(637.884994, 200.904956)"><g><path d="M 8.34375 -95.03125 C 8.34375 -98.988281 9.707031 -102.332031 12.4375 -105.0625 C 15.164062 -107.789062 18.507812 -109.15625 22.46875 -109.15625 C 26.320312 -109.15625 29.640625 -107.789062 32.421875 -105.0625 C 35.203125 -102.332031 36.59375 -98.988281 36.59375 -95.03125 C 36.59375 -91.175781 35.203125 -87.859375 32.421875 -85.078125 C 29.640625 -82.296875 26.320312 -80.90625 22.46875 -80.90625 C 18.507812 -80.90625 15.164062 -82.296875 12.4375 -85.078125 C 9.707031 -87.859375 8.34375 -91.175781 8.34375 -95.03125 Z M 34.515625 0 L 10.4375 0 L 10.4375 -70.796875 L 34.515625 -70.796875 Z M 34.515625 0 "/></g></g></g><g fill="#ffffff" fill-opacity="1"><g transform="translate(677.695072, 200.904956)"><g><path d="M 33.71875 0 L 9.625 0 L 9.625 -120.40625 L 33.71875 -120.40625 Z M 33.71875 0 "/></g></g></g><g fill="#ffffff" fill-opacity="1"><g transform="translate(715.899897, 200.904956)"><g><path d="M 33.71875 0 L 9.625 0 L 9.625 -120.40625 L 33.71875 -120.40625 Z M 33.71875 0 "/></g></g></g><g fill="#0cc0df" fill-opacity="1"><g transform="translate(59.907329, 200.904718)"><g><path d="M 52.015625 -17.015625 C 54.578125 -17.015625 57.359375 -17.414062 60.359375 -18.21875 C 63.359375 -19.019531 65.953125 -20.359375 68.140625 -22.234375 C 70.335938 -24.109375 71.4375 -26.648438 71.4375 -29.859375 C 71.4375 -32.859375 70.285156 -35.265625 67.984375 -37.078125 C 65.679688 -38.898438 62.65625 -40.398438 58.90625 -41.578125 C 55.164062 -42.753906 51.070312 -43.847656 46.625 -44.859375 C 42.1875 -45.878906 37.71875 -47.113281 33.21875 -48.5625 C 28.726562 -50.007812 24.609375 -51.910156 20.859375 -54.265625 C 17.117188 -56.617188 14.097656 -59.664062 11.796875 -63.40625 C 9.492188 -67.15625 8.34375 -71.921875 8.34375 -77.703125 C 8.34375 -83.367188 9.519531 -88.257812 11.875 -92.375 C 14.226562 -96.5 17.359375 -99.925781 21.265625 -102.65625 C 25.171875 -105.382812 29.554688 -107.414062 34.421875 -108.75 C 39.296875 -110.09375 44.195312 -110.765625 49.125 -110.765625 C 56.613281 -110.765625 63.617188 -109.585938 70.140625 -107.234375 C 76.671875 -104.878906 82 -101.160156 86.125 -96.078125 C 90.25 -90.992188 92.414062 -84.28125 92.625 -75.9375 L 69.34375 -75.9375 C 68.707031 -81.601562 66.726562 -85.53125 63.40625 -87.71875 C 60.09375 -89.914062 55.4375 -91.015625 49.4375 -91.015625 C 47.195312 -91.015625 44.816406 -90.640625 42.296875 -89.890625 C 39.785156 -89.148438 37.644531 -87.945312 35.875 -86.28125 C 34.113281 -84.625 33.234375 -82.40625 33.234375 -79.625 C 33.234375 -76.84375 34.382812 -74.648438 36.6875 -73.046875 C 38.988281 -71.441406 42.007812 -70.101562 45.75 -69.03125 C 49.5 -67.957031 53.617188 -66.9375 58.109375 -65.96875 C 62.609375 -65.007812 67.078125 -63.832031 71.515625 -62.4375 C 75.953125 -61.050781 80.046875 -59.15625 83.796875 -56.75 C 87.546875 -54.34375 90.566406 -51.210938 92.859375 -47.359375 C 95.160156 -43.503906 96.3125 -38.582031 96.3125 -32.59375 C 96.3125 -26.164062 95.023438 -20.703125 92.453125 -16.203125 C 89.890625 -11.710938 86.441406 -8.101562 82.109375 -5.375 C 77.773438 -2.644531 72.90625 -0.640625 67.5 0.640625 C 62.09375 1.921875 56.609375 2.5625 51.046875 2.5625 C 43.023438 2.5625 35.507812 1.195312 28.5 -1.53125 C 21.488281 -4.257812 15.8125 -8.457031 11.46875 -14.125 C 7.132812 -19.800781 4.914062 -27.078125 4.8125 -35.953125 L 29.21875 -35.953125 C 29.539062 -29.429688 31.945312 -24.644531 36.4375 -21.59375 C 40.9375 -18.539062 46.128906 -17.015625 52.015625 -17.015625 Z M 52.015625 -17.015625 "/></g></g></g><g fill="#0cc0df" fill-opacity="1"><g transform="translate(155.9013, 200.904718)"><g><path d="M 65.015625 -35.3125 C 65.015625 -38.414062 64.265625 -41.304688 62.765625 -43.984375 C 61.265625 -46.660156 59.253906 -48.828125 56.734375 -50.484375 C 54.222656 -52.140625 51.363281 -52.96875 48.15625 -52.96875 C 44.945312 -52.96875 42.082031 -52.140625 39.5625 -50.484375 C 37.050781 -48.828125 35.046875 -46.660156 33.546875 -43.984375 C 32.046875 -41.304688 31.296875 -38.414062 31.296875 -35.3125 C 31.296875 -32.207031 32.046875 -29.316406 33.546875 -26.640625 C 35.046875 -23.972656 37.050781 -21.804688 39.5625 -20.140625 C 42.082031 -18.484375 44.945312 -17.65625 48.15625 -17.65625 C 51.363281 -17.65625 54.222656 -18.484375 56.734375 -20.140625 C 59.253906 -21.804688 61.265625 -23.972656 62.765625 -26.640625 C 64.265625 -29.316406 65.015625 -32.207031 65.015625 -35.3125 Z M 89.09375 -70.640625 L 89.09375 0 L 65.015625 0 L 65.015625 -8.515625 C 62.660156 -4.867188 59.15625 -2.269531 54.5 -0.71875 C 49.84375 0.832031 45.269531 1.609375 40.78125 1.609375 C 34.144531 1.609375 28.148438 -0.101562 22.796875 -3.53125 C 17.441406 -6.957031 13.238281 -11.476562 10.1875 -17.09375 C 7.144531 -22.71875 5.625 -28.789062 5.625 -35.3125 C 5.625 -41.84375 7.144531 -47.914062 10.1875 -53.53125 C 13.238281 -59.15625 17.441406 -63.707031 22.796875 -67.1875 C 28.148438 -70.664062 34.144531 -72.40625 40.78125 -72.40625 C 45.269531 -72.40625 49.65625 -71.65625 53.9375 -70.15625 C 58.21875 -68.65625 61.910156 -65.976562 65.015625 -62.125 L 65.015625 -70.640625 Z M 89.09375 -70.640625 "/></g></g></g><g fill="#0cc0df" fill-opacity="1"><g transform="translate(249.48739, 200.904718)"><g><path d="M 33.71875 0 L 9.625 0 L 9.625 -120.40625 L 33.71875 -120.40625 Z M 33.71875 0 "/></g></g></g><g fill="#0cc0df" fill-opacity="1"><g transform="translate(287.692289, 200.904718)"><g><path d="M 31.46875 -43.828125 L 63.09375 -43.828125 C 63.09375 -43.828125 62.957031 -44.492188 62.6875 -45.828125 C 62.414062 -47.171875 61.769531 -48.695312 60.75 -50.40625 C 59.738281 -52.113281 58.160156 -53.632812 56.015625 -54.96875 C 53.878906 -56.3125 50.992188 -56.984375 47.359375 -56.984375 C 43.609375 -56.984375 40.660156 -56.3125 38.515625 -54.96875 C 36.378906 -53.632812 34.800781 -52.113281 33.78125 -50.40625 C 32.769531 -48.695312 32.128906 -47.171875 31.859375 -45.828125 C 31.597656 -44.492188 31.46875 -43.828125 31.46875 -43.828125 Z M 86.203125 -36.921875 C 86.203125 -36.171875 86.175781 -35.421875 86.125 -34.671875 C 86.070312 -33.921875 86.046875 -33.171875 86.046875 -32.421875 L 31.140625 -32.421875 C 31.140625 -29.742188 31.753906 -27.09375 32.984375 -24.46875 C 34.210938 -21.851562 35.976562 -19.71875 38.28125 -18.0625 C 40.582031 -16.40625 43.285156 -15.578125 46.390625 -15.578125 C 50.671875 -15.578125 54.039062 -16.722656 56.5 -19.015625 C 58.96875 -21.316406 60.253906 -23.753906 60.359375 -26.328125 L 84.921875 -26.328125 C 82.890625 -17.015625 78.394531 -10.03125 71.4375 -5.375 C 64.476562 -0.71875 56.289062 1.609375 46.875 1.609375 C 38.738281 1.609375 31.566406 0.0820312 25.359375 -2.96875 C 19.148438 -6.019531 14.304688 -10.300781 10.828125 -15.8125 C 7.359375 -21.320312 5.625 -27.820312 5.625 -35.3125 C 5.625 -42.695312 7.414062 -49.171875 11 -54.734375 C 14.582031 -60.304688 19.476562 -64.644531 25.6875 -67.75 C 31.894531 -70.851562 38.957031 -72.40625 46.875 -72.40625 C 54.039062 -72.40625 60.59375 -71.007812 66.53125 -68.21875 C 72.476562 -65.4375 77.242188 -61.421875 80.828125 -56.171875 C 84.410156 -50.929688 86.203125 -44.515625 86.203125 -36.921875 Z M 86.203125 -36.921875 "/></g></g></g><g fill="#0cc0df" fill-opacity="1"><g transform="translate(374.375791, 200.904718)"><g><path d="M 75.125 -49.28125 L 51.53125 -49.28125 C 51.101562 -52.488281 49.6875 -54.65625 47.28125 -55.78125 C 44.875 -56.90625 42.492188 -57.46875 40.140625 -57.46875 C 37.773438 -57.46875 35.578125 -56.90625 33.546875 -55.78125 C 31.515625 -54.65625 30.5 -53.023438 30.5 -50.890625 C 30.5 -49.285156 31.59375 -48.082031 33.78125 -47.28125 C 35.976562 -46.476562 38.816406 -45.832031 42.296875 -45.34375 C 45.773438 -44.863281 49.46875 -44.25 53.375 -43.5 C 57.28125 -42.75 60.972656 -41.570312 64.453125 -39.96875 C 67.929688 -38.363281 70.765625 -36.085938 72.953125 -33.140625 C 75.148438 -30.203125 76.25 -26.21875 76.25 -21.1875 C 76.25 -15.625 74.773438 -11.179688 71.828125 -7.859375 C 68.890625 -4.546875 64.796875 -2.140625 59.546875 -0.640625 C 54.304688 0.859375 48.265625 1.609375 41.421875 1.609375 C 34.460938 1.609375 28.171875 0.671875 22.546875 -1.203125 C 16.929688 -3.078125 12.410156 -6.070312 8.984375 -10.1875 C 5.566406 -14.3125 3.640625 -19.691406 3.203125 -26.328125 L 27.125 -26.328125 C 27.125 -22.796875 27.976562 -20.253906 29.6875 -18.703125 C 31.40625 -17.148438 33.441406 -16.160156 35.796875 -15.734375 C 38.148438 -15.304688 40.1875 -15.09375 41.90625 -15.09375 C 44.6875 -15.09375 47.066406 -15.597656 49.046875 -16.609375 C 51.023438 -17.628906 52.015625 -19.101562 52.015625 -21.03125 C 52.015625 -23.488281 50.914062 -25.359375 48.71875 -26.640625 C 46.53125 -27.929688 43.695312 -28.894531 40.21875 -29.53125 C 36.738281 -30.175781 33.046875 -30.816406 29.140625 -31.453125 C 25.234375 -32.097656 21.539062 -33.035156 18.0625 -34.265625 C 14.582031 -35.503906 11.742188 -37.351562 9.546875 -39.8125 C 7.359375 -42.269531 6.265625 -45.640625 6.265625 -49.921875 C 6.265625 -57.203125 9.097656 -62.769531 14.765625 -66.625 C 20.441406 -70.476562 29.113281 -72.40625 40.78125 -72.40625 C 50.082031 -72.40625 57.863281 -70.582031 64.125 -66.9375 C 70.382812 -63.300781 74.050781 -57.414062 75.125 -49.28125 Z M 75.125 -49.28125 "/></g></g></g></svg>